<?xml version="1.0" standalone="no"?>
<!DOCTYPE svg PUBLIC "-//W3C//DTD SVG 20010904//EN"
 "http://www.w3.org/TR/2001/REC-SVG-20010904/DTD/svg10.dtd">
<svg version="1.0" xmlns="http://www.w3.org/2000/svg"
 width="300.000000pt" height="300.000000pt" viewBox="0 0 300.000000 300.000000"
 preserveAspectRatio="xMidYMid meet">
<metadata>
Created by potrace 1.11, written by Peter Selinger 2001-2013
</metadata>
<g transform="translate(0.000000,300.000000) scale(0.100000,-0.100000)"
fill="#000000" stroke="none">
<path d="M1370 2942 c0 -7 38 -35 50 -37 3 -1 46 -20 95 -44 50 -24 109 -52
133 -63 23 -11 41 -22 40 -23 -2 -2 -47 -25 -100 -52 l-97 -49 -93 39 c-51 22
-128 54 -170 72 -43 19 -80 30 -83 25 -3 -4 35 -24 83 -44 48 -21 96 -41 107
-47 11 -5 47 -20 79 -33 56 -22 58 -24 37 -35 -12 -7 -42 -18 -65 -25 -39 -12
-49 -11 -92 6 -81 33 -87 35 -149 59 -33 13 -64 26 -70 30 -18 11 -65 20 -65
11 0 -5 44 -25 98 -46 53 -21 109 -44 125 -52 15 -8 27 -13 27 -9 0 3 14 -1
30 -10 17 -9 30 -19 30 -24 0 -7 -35 -27 -53 -29 -4 -1 -20 -9 -36 -18 -28
-16 -32 -16 -147 25 -119 42 -154 56 -186 72 -27 14 -65 11 -72 -6 -9 -24 3
-42 37 -55 18 -7 41 -16 52 -21 11 -5 47 -18 80 -30 123 -45 118 -37 45 -70
l-65 -30 -100 32 c-55 17 -146 47 -203 65 -118 39 -113 38 -106 19 4 -8 14
-15 23 -15 9 0 55 -13 101 -29 47 -16 124 -41 171 -56 67 -20 88 -31 92 -47 5
-19 11 -20 52 -15 25 4 53 2 63 -3 9 -5 75 -28 145 -51 l128 -41 -5 -41 c-2
-23 -5 -53 -5 -67 -1 -19 -9 -29 -31 -37 -22 -8 -30 -18 -30 -35 0 -18 -12
-29 -59 -52 -146 -71 -259 -213 -294 -370 -15 -67 -17 -275 -3 -336 3 -14 11
-52 17 -85 5 -33 32 -141 59 -240 27 -99 54 -202 60 -230 16 -71 58 -109 145
-132 35 -9 198 -12 248 -4 52 9 48 15 51 -73 2 -49 1 -50 -44 -74 -54 -28
-111 -81 -154 -142 l-31 -45 -68 1 c-111 2 -187 -46 -226 -143 -17 -41 -16
-114 1 -150 l13 -28 598 -3 c513 -2 597 0 597 12 0 8 -6 21 -13 28 -7 7 -27
34 -45 61 -29 43 -30 47 -12 47 55 0 128 -80 121 -132 -2 -16 8 -18 89 -18
l91 0 -4 45 c-5 54 -60 169 -96 202 -37 33 -86 63 -113 69 -43 10 -131 11
-171 2 -35 -8 -41 -6 -55 14 -37 56 -127 131 -195 164 -39 19 -77 34 -84 34
-7 0 -14 3 -14 8 -13 85 -15 137 -8 153 5 9 25 20 44 23 20 4 56 16 82 27 25
11 56 20 69 21 13 1 24 5 24 9 0 4 14 9 31 13 l32 6 -7 134 c-3 74 -8 140 -11
148 -2 7 -7 58 -9 113 -3 55 -6 100 -6 100 -1 0 -3 29 -5 65 -4 60 -14 209
-20 290 -2 19 -5 42 -8 50 -3 8 -13 45 -22 82 -17 71 -44 134 -77 181 -11 15
-17 27 -13 27 3 0 -17 20 -45 45 -64 57 -122 85 -185 90 -36 2 -51 8 -53 19
-2 9 -15 19 -28 22 -29 8 -44 32 -44 73 0 23 5 31 18 31 15 1 15 2 -3 15 -13
10 -20 29 -21 56 -2 39 -1 40 25 34 14 -4 40 -13 56 -20 64 -28 93 -34 109
-22 10 8 14 20 10 34 -6 21 -16 26 -180 84 -16 6 -21 17 -22 49 -1 23 -4 45
-7 50 -17 28 126 -4 146 -33 3 -5 10 -8 15 -8 5 1 23 -4 39 -10 17 -7 37 -13
45 -15 14 -3 45 -16 82 -35 24 -12 48 -11 48 1 0 6 -7 10 -15 10 -8 0 -23 4
-33 9 -23 12 -50 23 -177 72 -60 23 -114 46 -119 50 -4 4 10 17 33 28 22 12
41 18 41 14 0 -5 4 -3 8 3 8 13 131 -30 144 -50 4 -6 8 -8 8 -4 0 4 37 -9 83
-28 152 -66 149 -65 144 -51 -2 6 -75 42 -162 78 -88 37 -160 71 -162 75 -2 8
172 94 190 94 5 0 46 -18 90 -39 127 -61 279 -131 284 -131 2 0 1 5 -3 11 -4
6 -59 36 -123 66 -205 96 -236 113 -236 126 0 6 -18 14 -40 18 -32 4 -281 112
-320 139 -18 12 -45 20 -45 12z m-495 -342 c3 -6 -1 -7 -9 -4 -18 7 -21 14 -7
14 6 0 13 -4 16 -10z m90 -30 c13 -6 15 -9 5 -9 -8 0 -22 4 -30 9 -18 12 -2
12 25 0z m80 -30 c13 -6 15 -9 5 -9 -8 0 -22 4 -30 9 -18 12 -2 12 25 0z m65
-24 c-4 -4 -16 -4 -26 2 -16 9 -14 10 8 9 15 -1 23 -6 18 -11z m236 -14 c1
-25 -3 -26 -42 -12 -26 10 -26 11 -8 25 26 20 49 14 50 -13z m-73 -72 l67 -22
0 -49 c0 -27 -2 -49 -3 -49 -2 0 -64 20 -138 45 -74 25 -136 45 -139 46 -3 0
22 13 55 29 66 31 63 31 158 0z m247 -40 c8 -5 11 -10 5 -10 -5 0 -17 5 -25
10 -8 5 -10 10 -5 10 6 0 17 -5 25 -10z m47 -16 c-3 -3 -12 -4 -19 -1 -8 3 -5
6 6 6 11 1 17 -2 13 -5z m10 -30 c-3 -3 -12 -4 -19 -1 -8 3 -5 6 6 6 11 1 17
-2 13 -5z m-390 -2176 c-2 -7 -15 -41 -27 -76 -23 -62 -23 -62 -36 -36 -20 38
-17 77 6 102 22 24 65 31 57 10z"/>
</g>
</svg>
